<?xml version="1.0" encoding="UTF-8"?>
<svg id="_레이어_1" data-name="레이어_1" xmlns="http://www.w3.org/2000/svg" version="1.1" viewBox="0 0 160 160">
  <!-- Generator: Adobe Illustrator 29.3.1, SVG Export Plug-In . SVG Version: 2.1.0 Build 151)  -->
  <defs>
    <style>
      .st0 {
        fill: #fff;
      }

      .st1 {
        fill: none;
      }
    </style>
  </defs>
  <circle class="st0" cx="80" cy="80" r="76.58"/>
  <g>
    <g>
      <path class="st1" d="M58.26,128.83c-19.27-8.28-32.76-27.43-32.76-49.73,0-29.88,24.22-54.1,54.1-54.1s54.1,24.22,54.1,54.1-24.22,54.1-54.1,54.1c-7.58,0-14.79-1.56-21.34-4.37"/>
      <path d="M38.05,133.59l7.3-11.99,2.64,1.61-4.38,7.19,6.8-5.71,2.13,1.3-1.95,8.69,4.39-7.21,2.64,1.61-7.3,11.99-3.12-1.9,2.01-10.15-8.07,6.47-3.1-1.89Z"/>
      <path d="M41.94,119.16c.24,1.14.16,2.31-.24,3.49-.4,1.18-1.1,2.24-2.09,3.19-1,.94-2.1,1.58-3.29,1.9-1.2.33-2.36.34-3.49.04-1.13-.3-2.1-.89-2.92-1.75-.82-.87-1.35-1.87-1.58-3.02-.24-1.14-.15-2.3.25-3.47s1.1-2.22,2.1-3.17c1-.94,2.1-1.58,3.29-1.92s2.36-.35,3.48-.06c1.12.3,2.1.88,2.92,1.75.82.87,1.35,1.87,1.58,3.02ZM35.61,117.29c-.96.07-1.89.53-2.78,1.37-.9.85-1.41,1.75-1.53,2.7-.12.95.17,1.79.86,2.53.7.75,1.53,1.09,2.48,1.03s1.88-.52,2.79-1.38c.9-.85,1.41-1.75,1.53-2.7.12-.95-.17-1.8-.88-2.54-.7-.74-1.52-1.07-2.48-1Z"/>
      <path d="M17.22,107.3l14.42-3.06,1.92,3.36-9.95,10.88-1.63-2.86,7.64-7.99-10.77,2.51-1.62-2.84Z"/>
      <path d="M17.69,100.24l2.7-.89-1.3-3.93,2.51-.83,1.3,3.93,2.93-.96-1.47-4.45,2.6-.86,2.44,7.38-13.33,4.4-2.44-7.38,2.6-.86,1.47,4.45Z"/>
      <path d="M11.09,78.02l13.98-1.24.27,3.08-8.39.75,8.64,2.08.22,2.49-8.15,3.59,8.41-.75.27,3.08-13.98,1.24-.32-3.64,9.37-4.41-9.99-2.65-.32-3.62Z"/>
      <path d="M14.74,70.67l2.81.39.57-4.1,2.61.36-.57,4.1,3.05.43.65-4.64,2.71.38-1.07,7.7-13.91-1.94,1.07-7.7,2.71.38-.65,4.64Z"/>
      <path d="M30.55,55.54l-1.04,2.91-9.9,1.95,8.15,2.92-1.04,2.91-13.22-4.73,1.04-2.91,9.93-1.94-8.19-2.93,1.04-2.91,13.22,4.73Z"/>
      <path d="M24.24,39.06l2.33,1.44-1.77,2.86,9.6,5.95-1.63,2.63-9.6-5.95-1.77,2.86-2.33-1.44,5.17-8.34Z"/>
      <path d="M40.43,40.52c-1.15.21-2.31.1-3.48-.32-1.17-.42-2.22-1.15-3.14-2.17-.92-1.02-1.53-2.13-1.83-3.33-.3-1.2-.28-2.37.04-3.49.33-1.12.93-2.08,1.82-2.88.89-.8,1.9-1.3,3.05-1.51,1.15-.21,2.3-.1,3.46.33,1.16.43,2.2,1.15,3.12,2.17.92,1.02,1.53,2.13,1.84,3.34.31,1.2.3,2.37-.02,3.48s-.93,2.08-1.81,2.88c-.89.8-1.9,1.3-3.05,1.51ZM42.45,34.23c-.05-.96-.48-1.9-1.3-2.81-.83-.92-1.72-1.45-2.67-1.59-.95-.14-1.8.13-2.55.8-.76.69-1.12,1.51-1.08,2.46.04.95.48,1.89,1.32,2.82.83.92,1.72,1.45,2.67,1.59.95.14,1.8-.13,2.56-.82.75-.68,1.1-1.5,1.06-2.46Z"/>
      <path d="M49.34,17.88l1.37,2.37-4.47,2.59,1.48,2.56,3.35-1.94,1.33,2.3-3.35,1.94,2.85,4.92-2.68,1.55-7.04-12.15,7.15-4.14Z"/>
      <path d="M58.14,17.64c.26-1.19.78-2.2,1.57-3.02.79-.83,1.78-1.4,2.97-1.7,1.46-.37,2.82-.27,4.08.32,1.26.59,2.25,1.57,2.98,2.95l-3.29.84c-.39-.51-.85-.85-1.38-1.03-.53-.18-1.07-.2-1.65-.05-.92.24-1.58.78-1.97,1.64-.39.86-.43,1.88-.13,3.07.3,1.19.83,2.06,1.59,2.63s1.59.73,2.52.49c.57-.15,1.04-.43,1.42-.84.37-.41.61-.93.71-1.57l3.29-.84c.03,1.56-.37,2.9-1.19,4.01-.82,1.11-1.96,1.86-3.42,2.23-1.19.31-2.33.29-3.42-.06-1.09-.35-2.03-.98-2.83-1.89-.79-.91-1.36-2.04-1.71-3.38-.34-1.34-.39-2.61-.13-3.8Z"/>
      <path d="M81.05,22.49l-4.74.08-.72,2.49-3.24.05,4.36-14.11,3.58-.06,4.82,13.96-3.27.05-.8-2.47ZM80.21,19.86l-1.66-5.11-1.47,5.16,3.13-.05Z"/>
      <path d="M97.46,13.14l-.52,2.69-3.3-.64-2.15,11.09-3.04-.59,2.15-11.09-3.3-.64.52-2.69,9.64,1.87Z"/>
      <path d="M111.25,18.49l-5.48,12.93-2.85-1.21,2.26-5.32-4.43-1.88-2.25,5.32-2.85-1.21,5.48-12.93,2.85,1.21-2.15,5.06,4.43,1.88,2.15-5.06,2.85,1.21Z"/>
      <path d="M109.72,33.1c-.43-1.09-.55-2.24-.37-3.48.19-1.23.69-2.4,1.51-3.5.82-1.1,1.79-1.92,2.91-2.44s2.26-.74,3.43-.64c1.16.1,2.22.51,3.18,1.22s1.65,1.61,2.08,2.7c.43,1.09.55,2.24.36,3.46-.19,1.22-.7,2.38-1.52,3.48-.82,1.1-1.79,1.92-2.91,2.46-1.12.54-2.26.76-3.42.66-1.16-.1-2.22-.5-3.17-1.22s-1.65-1.61-2.08-2.7ZM116.29,33.85c.93-.24,1.77-.85,2.5-1.83.74-.99,1.09-1.97,1.04-2.93-.05-.96-.48-1.74-1.29-2.34-.82-.61-1.7-.81-2.62-.58-.93.23-1.76.84-2.51,1.85-.74.99-1.09,1.97-1.04,2.93.05.96.48,1.74,1.3,2.35.81.6,1.69.79,2.62.55Z"/>
      <path d="M121.71,41.06l2.71,3.01-1.96,1.77-4.78-5.31,10.43-9.4,2.07,2.3-8.47,7.63Z"/>
      <path d="M136.26,41.2l-11.49,8.08-1.78-2.53,11.49-8.08,1.78,2.53Z"/>
      <path d="M135.76,46.19c1.21.02,2.3.34,3.27.95s1.71,1.47,2.25,2.58c.65,1.36.81,2.71.48,4.06-.33,1.35-1.1,2.51-2.32,3.49l-1.47-3.07c.42-.48.67-1,.75-1.55.08-.55-.01-1.09-.27-1.63-.41-.86-1.08-1.4-1.99-1.61-.92-.22-1.93-.06-3.03.47-1.11.53-1.86,1.22-2.27,2.07-.41.85-.4,1.7,0,2.56.25.53.62.94,1.1,1.23.48.29,1.03.42,1.67.39l1.47,3.07c-1.53.33-2.92.2-4.17-.39-1.25-.59-2.2-1.57-2.85-2.92-.53-1.11-.73-2.23-.6-3.37.13-1.14.56-2.18,1.3-3.14.74-.96,1.74-1.73,2.99-2.33,1.25-.6,2.48-.89,3.7-.87Z"/>
      <path d="M132.98,67.97c.21-.78.6-1.44,1.18-1.98s1.31-.89,2.22-1.07l.53,3.25c-.51.13-.87.35-1.1.67-.23.32-.3.7-.23,1.14.07.45.25.79.52,1.01.27.22.61.3,1.02.24.34-.06.61-.21.8-.45.19-.24.33-.53.43-.86.09-.33.19-.79.28-1.37.14-.85.31-1.56.51-2.12.19-.56.53-1.06,1.01-1.52.48-.46,1.15-.76,2.02-.9,1.29-.21,2.37.05,3.24.77.87.73,1.41,1.77,1.63,3.12.22,1.38.04,2.55-.55,3.52-.59.96-1.54,1.58-2.83,1.85l-.54-3.3c.44-.1.77-.3.98-.62s.28-.69.21-1.12c-.06-.37-.22-.65-.47-.84-.25-.19-.59-.25-.99-.19-.45.07-.77.32-.95.74-.19.42-.36,1.06-.52,1.92-.17.86-.35,1.56-.55,2.11-.19.55-.52,1.05-.99,1.51-.47.45-1.11.75-1.94.88-.79.13-1.54.06-2.24-.19s-1.3-.7-1.8-1.33-.82-1.41-.97-2.35c-.15-.92-.12-1.76.09-2.54Z"/>
      <path d="M147.59,85.84l-2.74-.07.09-3.36-11.3-.3.08-3.09,11.3.3.09-3.36,2.74.07-.26,9.81Z"/>
      <path d="M146.46,92.53l-8.18-1.91c-.82-.19-1.49-.16-2.02.1-.53.26-.87.74-1.04,1.45-.16.7-.07,1.3.28,1.77.35.48.94.81,1.76,1.01l8.18,1.92-.71,3.01-8.16-1.91c-1.22-.29-2.2-.76-2.93-1.43-.73-.67-1.22-1.45-1.47-2.34-.24-.89-.25-1.83-.02-2.8.23-.97.64-1.8,1.24-2.47s1.38-1.13,2.33-1.38c.96-.25,2.04-.23,3.26.06l8.16,1.91-.7,3.01Z"/>
      <path d="M138.76,111.25c-.97.64-2.05.97-3.24,1-1.19.02-2.41-.27-3.66-.88-1.23-.61-2.21-1.39-2.92-2.35-.72-.96-1.12-2.03-1.2-3.19s.17-2.34.75-3.53l2.1-4.27,12.6,6.19-2.1,4.27c-.59,1.2-1.37,2.12-2.34,2.76ZM130.99,106.35c.35.9,1.1,1.63,2.26,2.2,1.16.57,2.21.72,3.14.46s1.66-.92,2.17-1.97l.65-1.31-7.32-3.6-.65,1.31c-.51,1.05-.6,2.02-.25,2.92Z"/>
      <path d="M131.88,118.41l-2.25-1.73-2.52,3.28-2.09-1.61,2.52-3.28-2.44-1.88-2.85,3.71-2.17-1.67,4.74-6.16,11.13,8.56-4.74,6.16-2.17-1.67,2.86-3.71Z"/>
      <path d="M110.68,123.75l2.34-2.02,9.58,3.17-5.67-6.55,2.34-2.02,9.18,10.62-2.34,2.02-9.6-3.2,5.69,6.58-2.34,2.02-9.18-10.62Z"/>
      <path d="M108.06,141.23l-1.32-2.4,2.95-1.62-5.44-9.91,2.71-1.49,5.44,9.91,2.95-1.62,1.32,2.4-8.61,4.73Z"/>
    </g>
    <g>
      <path class="st1" d="M58.66,141.8c6.55,2.81,13.76,4.37,21.34,4.37,29.88,0,54.1-24.22,54.1-54.1s-24.22-54.1-54.1-54.1-54.1,24.22-54.1,54.1c0,22.3,13.49,41.45,32.76,49.73"/>
      <path d="M78.29,132.62l-7.2,12.87-3.79-.77-1.62-14.65,3.22.65.98,11.01,5.21-9.76,3.21.65Z"/>
      <path d="M81.62,132.13l.1,14.04-3.09.02-.1-14.04,3.09-.02Z"/>
      <path d="M92.99,142.11l-4.64.98-.23,2.58-3.17.67,1.6-14.68,3.5-.74,7.38,12.79-3.2.67-1.25-2.27ZM91.67,139.69l-2.6-4.71-.46,5.35,3.06-.64Z"/>
    </g>
  </g>
  <path d="M98,49.5v.5-1,.5Z"/>
  <path d="M93.52,99.03v-.03c5.24-.01,9.48-4.26,9.48-9.5s-4.25-9.5-9.5-9.5h-23.5v-5.18l47.3-1.23-.49-6.75-46.81,1.25v-5.07h23.52v-.03c5.24-.01,9.48-4.26,9.48-9.5s-4.25-9.5-9.5-9.5h-31.5v24.31l-9.68.26-2.64,6.77,12.32-.32v40.97h8v-16.97h14.19l12.74,15.83h8.71l-12.65-15.83h.54ZM91.34,50.83c1.48,0,2.69,1.2,2.69,2.69s-1.2,2.69-2.69,2.69h-21.34v-5.38h21.34ZM70,86.83h21.34c1.48,0,2.69,1.2,2.69,2.69s-1.2,2.69-2.69,2.69h-21.34v-5.38Z"/>
</svg>